<?xml version="1.0" encoding="utf-8"?>
<!-- Generator: Adobe Illustrator 28.3.0, SVG Export Plug-In . SVG Version: 6.00 Build 0)  -->
<svg version="1.1" id="katman_1" xmlns="http://www.w3.org/2000/svg" xmlns:xlink="http://www.w3.org/1999/xlink" x="0px" y="0px"
	 viewBox="0 0 179 46" style="enable-background:new 0 0 179 46;" xml:space="preserve">
<style type="text/css">
	.st0{fill-rule:evenodd;clip-rule:evenodd;fill:#0CC2FF;}
	.st1{fill:#0CC2FF;}
	.st2{fill:#0CC2FF;stroke:#0CC2FF;}
</style>
<path class="st0" d="M1.2,0.5H0.1v1.1v0.5L0,2.2l0.1,0.1v31.8v1.1h0L0,35.3l10.1,10.2l0.3,0.3h0.5h12.2h22h1.1v-1.1V12.2v-1.1
	l0.1-0.1L36.2,0.9l-0.3-0.3h-0.5H23.2H1.2z M2.3,4.5V33h19.7v-8.5h0v-0.3H12h-1.1V23V12.9L2.3,4.5z M13.2,13.9l0.5-0.5h8.4v8.5h-8.9
	V13.9z M12.3,11.1L3.8,2.8h18.2v8.3H12.3z M43.3,11.1l-8.3-8.3H24.3v8.3H43.3z M24.3,21.9v-8.5H44v28.7l-8.7-8.5V23.3v-1.1h-1.1
	h-9.9L24.3,21.9L24.3,21.9z M33.8,35.2l8.5,8.3h-18v-8.3H33.8z M32.6,33l0.5-0.5v-8.1h-8.7V33H32.6z M22.1,35.2h-19l8.3,8.3h10.7
	V35.2z"/>
<path class="st1" d="M67.6,31.3l1.8,1.8v5.1L67.6,40h-9.8V25.4h7.9l1.8,1.8V31.3z M60.1,27.6v3.7h5.4v-3.2l-0.5-0.5H60.1z
	 M67.3,37.3V34l-0.5-0.5h-6.7v4.3h6.7L67.3,37.3z"/>
<path class="st1" d="M82.8,25.4H85v12.8L83.2,40h-7.9l-1.8-1.8V25.4h2.2v11.9l0.5,0.5h6.1l0.5-0.5V25.4z"/>
<path class="st1" d="M98.7,25.4l1.8,1.8v2.4h-2.2v-1.5l-0.5-0.5h-6.1l-0.5,0.5v2.6l0.5,0.5h7l1.8,1.8v5.1L98.7,40h-7.9l-1.8-1.8
	v-2.4h2.2v1.5l0.5,0.5h6.1l0.5-0.5V34l-0.5-0.5h-7l-1.8-1.8v-4.5l1.8-1.8H98.7z"/>
<path class="st1" d="M111.3,27.6v10.2h4.7V40h-11.6v-2.2h4.7V27.6h-4.7v-2.2H116v2.2H111.3z"/>
<path class="st1" d="M129.4,25.4h2.2V40h-2.2l-7.2-10.7V40H120V25.4h2.2l7.2,10.7V25.4z"/>
<path class="st1" d="M138.2,27.6l-0.5,0.5v3h7v2.2h-7v4.5h9.4V40h-11.6V27.2l1.8-1.8h9.8v2.2H138.2z"/>
<path class="st1" d="M160.8,25.4l1.8,1.8v2.4h-2.2v-1.5l-0.5-0.5h-6.1l-0.5,0.5v2.6l0.5,0.5h7l1.8,1.8v5.1l-1.8,1.8h-7.9l-1.8-1.8
	v-2.4h2.2v1.5l0.5,0.5h6.1l0.5-0.5V34l-0.5-0.5h-7l-1.8-1.8v-4.5l1.8-1.8H160.8z"/>
<path class="st1" d="M176.3,25.4l1.8,1.8v2.4h-2.2v-1.5l-0.5-0.5h-6.1l-0.5,0.5v2.6l0.5,0.5h7l1.8,1.8v5.1l-1.8,1.8h-7.9l-1.8-1.8
	v-2.4h2.2v1.5l0.5,0.5h6.1l0.5-0.5V34l-0.5-0.5h-7l-1.8-1.8v-4.5l1.8-1.8H176.3z"/>
<path class="st0" d="M57.6,25.1h8.3l2,2v4.1l1.8,1.8v5.3l-2,2H57.6V25.1z M58.1,25.6v14.1h9.4l1.7-1.7v-4.9l-1.8-1.8v-4.1l-1.7-1.7
	H58.1z M73.1,25.1h2.7v12.1l0.4,0.4h5.9l0.4-0.4V25.1h2.7v13.2l-2,2h-8.1l-2-2V25.1z M73.7,25.6v12.5l1.7,1.7H83l1.7-1.7V25.6H83
	v11.8l-0.7,0.7H76l-0.7-0.7V25.6H73.7z M90.6,25.1h8.1l2,2v2.8H98v-1.7l-0.4-0.4h-5.9l-0.4,0.4v2.4l0.4,0.4h7l2,2v5.3l-2,2h-8.1
	l-2-2v-2.8h2.7v1.7l0.4,0.4h5.9l0.4-0.4v-3.1l-0.4-0.4h-7l-2-2v-4.7L90.6,25.1z M90.9,25.6l-1.7,1.7v4.2l1.7,1.7h7l0.7,0.7v3.5
	l-0.7,0.7h-6.3l-0.7-0.7V36h-1.7v2.1l1.7,1.7h7.7l1.7-1.7v-4.9l-1.7-1.7h-7l-0.7-0.7V28l0.7-0.7h6.3l0.7,0.7v1.4h1.7v-2.1l-1.7-1.7
	H90.9z M104.2,25.1h12.1v2.7h-4.7v9.7h4.7v2.7h-12.1v-2.7h4.7v-9.7h-4.7V25.1z M104.7,25.6v1.7h4.7v10.8h-4.7v1.7h11.1v-1.7h-4.7
	V27.3h4.7v-1.7H104.7z M119.7,25.1h2.6l6.8,10.1V25.1h2.7v15.2h-2.6l-6.8-10.1v10.1h-2.7V25.1z M120.2,25.6v14.1h1.7V28.4l7.6,11.3
	h1.8V25.6h-1.7v11.3L122,25.6H120.2z M137.2,25.1h10.1v2.7h-9l-0.4,0.4v2.6h7v2.7h-7v4h9.4v2.7h-12.1V27.1L137.2,25.1z M137.4,25.6
	l-1.7,1.7v12.5h11.1v-1.7h-9.4v-5h7v-1.7h-7V28l0.7-0.7h8.7v-1.7H137.4z M152.7,25.1h8.1l2,2v2.8h-2.7v-1.7l-0.4-0.4h-5.9l-0.4,0.4
	v2.4l0.4,0.4h7l2,2v5.3l-2,2h-8.1l-2-2v-2.8h2.7v1.7l0.4,0.4h5.9l0.4-0.4v-3.1l-0.4-0.4h-7l-2-2v-4.7L152.7,25.1z M152.9,25.6
	l-1.7,1.7v4.2l1.7,1.7h7l0.7,0.7v3.5l-0.7,0.7h-6.3l-0.7-0.7V36h-1.7v2.1l1.7,1.7h7.7l1.7-1.7v-4.9l-1.7-1.7h-7l-0.7-0.7V28l0.7-0.7
	h6.3l0.7,0.7v1.4h1.7v-2.1l-1.7-1.7H152.9z M168.3,25.1h8.1l2,2v2.8h-2.7v-1.7l-0.4-0.4h-5.9l-0.4,0.4v2.4l0.4,0.4h7l2,2v5.3l-2,2
	h-8.1l-2-2v-2.8h2.7v1.7l0.4,0.4h5.9l0.4-0.4v-3.1l-0.4-0.4h-7l-2-2v-4.7L168.3,25.1z M168.5,25.6l-1.7,1.7v4.2l1.7,1.7h7l0.7,0.7
	v3.5l-0.7,0.7h-6.3l-0.7-0.7V36h-1.7v2.1l1.7,1.7h7.7l1.7-1.7v-4.9l-1.7-1.7h-7l-0.7-0.7V28l0.7-0.7h6.3l0.7,0.7v1.4h1.7v-2.1
	l-1.7-1.7H168.5z M59.8,27.3H65l0.7,0.7v3.5h-5.9V27.3z M60.3,27.8V31h4.8v-2.8l-0.4-0.4H60.3z M59.8,33.2h7l0.7,0.7v3.5l-0.7,0.7
	h-7V33.2z M60.3,33.7v3.8h6.3l0.4-0.4v-3.1l-0.4-0.4H60.3z"/>
<path class="st2" d="M67.4,6.1l1.8,1.8V11H67V8.8l-0.5-0.5h-6.1l-0.5,0.5V18l0.5,0.5h6.1L67,18v-2.2h2.2v3.1l-1.8,1.8h-7.9l-1.8-1.8
	v-11l1.8-1.8H67.4z"/>
<path class="st2" d="M82.9,6.1l1.8,1.8V14l-1.8,1.8h-3.1l4.9,4.9h-3.1l-4.9-4.9h-1.4v4.9h-2.2V6.1H82.9z M82.5,13.1V8.8L82,8.3h-6.7
	v5.4H82L82.5,13.1z"/>
<path class="st2" d="M98.4,6.1l1.8,1.8v11l-1.8,1.8h-7.9l-1.8-1.8v-11l1.8-1.8H98.4z M98,18V8.8l-0.5-0.5h-6.1l-0.5,0.5V18l0.5,0.5
	h6.1L98,18z"/>
<path class="st2" d="M113.9,6.1l1.8,1.8v2.4h-2.2V8.8L113,8.3h-6.1l-0.5,0.5v2.6l0.5,0.5h7l1.8,1.8v5.1l-1.8,1.8H106l-1.8-1.8v-2.4
	h2.2V18l0.5,0.5h6.1l0.5-0.5v-3.3l-0.5-0.5h-7l-1.8-1.8V7.9l1.8-1.8H113.9z"/>
<path class="st2" d="M129.5,6.1l1.8,1.8v2.4h-2.2V8.8l-0.5-0.5h-6.1l-0.5,0.5v2.6l0.5,0.5h7l1.8,1.8v5.1l-1.8,1.8h-7.9l-1.8-1.8
	v-2.4h2.2V18l0.5,0.5h6.1l0.5-0.5v-3.3l-0.5-0.5h-7l-1.8-1.8V7.9l1.8-1.8H129.5z"/>
<path class="st2" d="M138,8.3l-0.5,0.5v3h7V14h-7v6.7h-2.2V7.9l1.8-1.8h9.8v2.2H138z"/>
<path class="st2" d="M157.7,8.3v10.2h4.7v2.2h-11.6v-2.2h4.7V8.3h-4.7V6.1h11.6v2.2H157.7z"/>
</svg>
