<?xml version="1.0" encoding="utf-8"?>
<!-- Generator: Adobe Illustrator 28.3.0, SVG Export Plug-In . SVG Version: 6.00 Build 0)  -->
<svg version="1.1" id="katman_1" xmlns="http://www.w3.org/2000/svg" xmlns:xlink="http://www.w3.org/1999/xlink" x="0px" y="0px"
	 viewBox="0 0 185 46" style="enable-background:new 0 0 185 46;" xml:space="preserve">
<style type="text/css">
	.st0{clip-path:url(#SVGID_00000054964821066797318570000000391922594393818010_);}
	.st1{fill:url(#SVGID_00000145778620903244081190000015213823553742068622_);}
	.st2{fill:url(#SVGID_00000167391078490371841720000006693996529479080607_);}
	.st3{fill:url(#SVGID_00000105400405905931184600000015370611857909351327_);}
	.st4{fill:url(#SVGID_00000125567692877006511910000005050616375770342817_);}
	.st5{fill:url(#SVGID_00000036225036338575970080000005290492750971854998_);}
	.st6{fill:url(#SVGID_00000121246873722134039310000006533848275068243593_);}
	.st7{fill:url(#SVGID_00000151539381472614527270000017961738581278886300_);}
	.st8{fill:url(#SVGID_00000138536611321164617120000010908475326261221252_);}
	.st9{fill:url(#SVGID_00000058559520832413574540000012618242155078349199_);}
	.st10{fill:url(#SVGID_00000075875328211693006520000011874488400763203728_);}
	.st11{fill:url(#SVGID_00000039842026310720128820000002487445685607623615_);}
	.st12{fill:url(#SVGID_00000026867870644250671370000013425118740617367711_);}
	.st13{fill:url(#SVGID_00000069400386200502585730000001379804102735641014_);}
	.st14{fill:url(#SVGID_00000100351133907770859490000011303870887210539967_);}
	.st15{fill:url(#SVGID_00000150819157961691712920000013247428213422490807_);}
	.st16{fill:url(#SVGID_00000136376932538775425670000007344119491455337405_);}
	.st17{fill:url(#SVGID_00000025405356977510139480000001828401274270385034_);}
	.st18{fill:url(#SVGID_00000039827349256701745450000011644565813590915218_);}
</style>
<g>
	<defs>
		<rect id="SVGID_1_" y="0.5" width="184.6" height="45"/>
	</defs>
	<clipPath id="SVGID_00000034056341792302380440000013455024289269099695_">
		<use xlink:href="#SVGID_1_"  style="overflow:visible;"/>
	</clipPath>
	<g style="clip-path:url(#SVGID_00000034056341792302380440000013455024289269099695_);">
		
			<linearGradient id="SVGID_00000119102934412043423710000001192148211935962513_" gradientUnits="userSpaceOnUse" x1="8.3406" y1="38.22" x2="41.7927" y2="7.6317" gradientTransform="matrix(1 0 0 -1 0 48)">
			<stop  offset="0" style="stop-color:#60CDD0"/>
			<stop  offset="1" style="stop-color:#19B9BE"/>
		</linearGradient>
		<path style="fill:url(#SVGID_00000119102934412043423710000001192148211935962513_);" d="M38,8v30H7.6v7.5h38V8H38z M38,8V0.5H7.6
			C3.3,0.5,0,3.9,0,8v30h7.6V11.6c0-1.9,1.6-3.5,3.5-3.5L38,8z"/>
		
			<linearGradient id="SVGID_00000084515810167130715890000017055300572715223960_" gradientUnits="userSpaceOnUse" x1="58.3635" y1="12.1001" x2="75.5889" y2="12.1001">
			<stop  offset="0" style="stop-color:#60CDD0"/>
			<stop  offset="1" style="stop-color:#19B9BE"/>
		</linearGradient>
		<path style="fill:url(#SVGID_00000084515810167130715890000017055300572715223960_);" d="M67.4,20.6c-1.7,0-3.2-0.4-4.7-1.1
			c-1.3-0.7-2.4-1.8-3.2-3.1c-0.8-1.3-1.1-2.7-1.1-4.3s0.4-3,1.1-4.3c0.8-1.3,1.8-2.3,3.2-3.1C64,4,65.7,3.6,67.4,3.6
			c1.5,0,2.9,0.3,4.1,0.9c1.1,0.6,2,1.3,2.7,2.2c0.7,0.9,1.2,1.9,1.4,3h-3.6c-0.3-0.8-0.8-1.5-1.6-2c-0.8-0.6-1.8-0.8-3-0.8
			c-1,0-1.9,0.2-2.7,0.7c-0.8,0.5-1.4,1.1-1.9,1.9c-0.4,0.8-0.7,1.7-0.7,2.7c0,1.1,0.2,2,0.6,2.8s1,1.4,1.8,1.9
			c0.8,0.4,1.7,0.7,2.7,0.7c1.2,0,2.3-0.3,3.1-0.9s1.3-1.4,1.7-2.3h3.6c-0.3,1.1-0.8,2.2-1.5,3.2s-1.6,1.8-2.8,2.4
			C70.2,20.3,68.9,20.6,67.4,20.6z"/>
		
			<linearGradient id="SVGID_00000009576069384390121650000016268392351374883460_" gradientUnits="userSpaceOnUse" x1="77.7168" y1="14.2" x2="85.5189" y2="14.2">
			<stop  offset="0" style="stop-color:#60CDD0"/>
			<stop  offset="1" style="stop-color:#19B9BE"/>
		</linearGradient>
		<path style="fill:url(#SVGID_00000009576069384390121650000016268392351374883460_);" d="M77.7,20.2V8.5H81v1.7h0.1
			c0.2-0.6,0.6-1,1.1-1.4c0.5-0.4,1.1-0.6,1.9-0.6h1.4v3.1h-1.7c-0.6,0-1.1,0.1-1.5,0.3c-0.4,0.2-0.7,0.5-1,0.9
			c-0.2,0.4-0.3,0.9-0.3,1.4v6.2L77.7,20.2z"/>
		
			<linearGradient id="SVGID_00000157989383869062796500000001302770971221157532_" gradientUnits="userSpaceOnUse" x1="86.5322" y1="14.3001" x2="99.5019" y2="14.3001">
			<stop  offset="0" style="stop-color:#60CDD0"/>
			<stop  offset="1" style="stop-color:#19B9BE"/>
		</linearGradient>
		<path style="fill:url(#SVGID_00000157989383869062796500000001302770971221157532_);" d="M93,20.5c-1.2,0-2.3-0.3-3.3-0.8
			c-1-0.6-1.8-1.3-2.3-2.3c-0.6-1-0.8-2-0.8-3.1s0.3-2.2,0.8-3.1c0.6-1,1.3-1.7,2.3-2.3c1-0.6,2.1-0.8,3.3-0.8
			c1.2,0,2.3,0.3,3.3,0.8c1,0.6,1.8,1.3,2.3,2.3c0.6,1,0.8,2,0.8,3.1s-0.3,2.2-0.8,3.1c-0.6,1-1.3,1.7-2.3,2.3
			C95.3,20.2,94.2,20.5,93,20.5z M93,17.7c0.6,0,1.1-0.1,1.6-0.4c0.5-0.3,0.9-0.7,1.1-1.2c0.3-0.5,0.4-1.1,0.4-1.8
			c0-0.7-0.1-1.3-0.4-1.8c-0.3-0.5-0.7-0.9-1.1-1.2c-0.5-0.3-1-0.4-1.6-0.4c-0.6,0-1.1,0.1-1.6,0.4c-0.5,0.3-0.9,0.7-1.1,1.2
			c-0.3,0.5-0.4,1.1-0.4,1.8c0,0.7,0.1,1.3,0.4,1.8c0.3,0.5,0.7,0.9,1.1,1.2C91.9,17.6,92.4,17.7,93,17.7z"/>
		
			<linearGradient id="SVGID_00000082364757698117072020000007348728526200764580_" gradientUnits="userSpaceOnUse" x1="100.616" y1="14.25" x2="111.864" y2="14.25">
			<stop  offset="0" style="stop-color:#60CDD0"/>
			<stop  offset="1" style="stop-color:#19B9BE"/>
		</linearGradient>
		<path style="fill:url(#SVGID_00000082364757698117072020000007348728526200764580_);" d="M106.5,20.5c-1.1,0-2.1-0.2-2.9-0.6
			c-0.8-0.4-1.5-0.9-1.9-1.5c-0.5-0.6-0.8-1.3-1-2h3.3c0.2,0.4,0.5,0.8,0.9,1.1s1,0.4,1.6,0.4c0.7,0,1.2-0.1,1.5-0.3
			c0.3-0.2,0.4-0.5,0.4-0.9c0-0.2-0.1-0.4-0.3-0.6c-0.2-0.1-0.5-0.3-0.8-0.3s-0.8-0.2-1.3-0.3c-1-0.2-1.8-0.4-2.5-0.7
			c-0.6-0.2-1.2-0.6-1.7-1.1c-0.5-0.5-0.7-1.2-0.7-2.1c0-0.6,0.2-1.2,0.6-1.8c0.4-0.5,1-1,1.7-1.3c0.8-0.3,1.6-0.5,2.7-0.5
			c1.6,0,2.9,0.4,3.9,1.1c0.9,0.7,1.5,1.6,1.7,2.7h-3.2c-0.1-0.3-0.4-0.6-0.8-0.8s-0.9-0.3-1.5-0.3c-0.4,0-0.7,0-0.9,0.1
			c-0.2,0.1-0.4,0.2-0.5,0.3c-0.1,0.1-0.2,0.3-0.2,0.5c0,0.2,0.1,0.4,0.3,0.6c0.2,0.2,0.5,0.3,0.8,0.3c0.3,0.1,0.8,0.2,1.3,0.3
			c1,0.2,1.8,0.4,2.5,0.7c0.6,0.2,1.2,0.6,1.7,1.1c0.5,0.5,0.7,1.2,0.7,2.1c0,0.7-0.2,1.3-0.6,1.9c-0.4,0.6-1,1-1.8,1.4
			C108.6,20.3,107.6,20.5,106.5,20.5z"/>
		
			<linearGradient id="SVGID_00000144316467550348680080000014616696596718951331_" gradientUnits="userSpaceOnUse" x1="112.978" y1="14.25" x2="124.225" y2="14.25">
			<stop  offset="0" style="stop-color:#60CDD0"/>
			<stop  offset="1" style="stop-color:#19B9BE"/>
		</linearGradient>
		<path style="fill:url(#SVGID_00000144316467550348680080000014616696596718951331_);" d="M118.9,20.5c-1.1,0-2.1-0.2-2.9-0.6
			c-0.8-0.4-1.5-0.9-1.9-1.5c-0.5-0.6-0.8-1.3-1-2h3.3c0.2,0.4,0.5,0.8,0.9,1.1c0.4,0.3,1,0.4,1.6,0.4c0.7,0,1.2-0.1,1.5-0.3
			c0.3-0.2,0.4-0.5,0.4-0.9c0-0.2-0.1-0.4-0.3-0.6c-0.2-0.1-0.5-0.3-0.8-0.3c-0.3-0.1-0.8-0.2-1.3-0.3c-1-0.2-1.8-0.4-2.5-0.7
			c-0.6-0.2-1.2-0.6-1.7-1.1c-0.5-0.5-0.7-1.2-0.7-2.1c0-0.6,0.2-1.2,0.6-1.8c0.4-0.5,1-1,1.7-1.3c0.8-0.3,1.6-0.5,2.7-0.5
			c1.6,0,2.9,0.4,3.9,1.1c0.9,0.7,1.5,1.6,1.7,2.7h-3.2c-0.1-0.3-0.4-0.6-0.8-0.8c-0.4-0.2-0.9-0.3-1.5-0.3c-0.4,0-0.7,0-0.9,0.1
			c-0.2,0.1-0.4,0.2-0.5,0.3c-0.1,0.1-0.2,0.3-0.2,0.5c0,0.2,0.1,0.4,0.3,0.6c0.2,0.2,0.5,0.3,0.8,0.3c0.3,0.1,0.8,0.2,1.3,0.3
			c1,0.2,1.8,0.4,2.5,0.7c0.6,0.2,1.2,0.6,1.7,1.1c0.5,0.5,0.7,1.2,0.7,2.1c0,0.7-0.2,1.3-0.6,1.9c-0.4,0.6-1,1-1.8,1.4
			C121,20.3,120,20.5,118.9,20.5z"/>
		
			<linearGradient id="SVGID_00000039133829829730647060000009828773310449988494_" gradientUnits="userSpaceOnUse" x1="128.076" y1="12.1501" x2="139.931" y2="12.1501">
			<stop  offset="0" style="stop-color:#60CDD0"/>
			<stop  offset="1" style="stop-color:#19B9BE"/>
		</linearGradient>
		<path style="fill:url(#SVGID_00000039133829829730647060000009828773310449988494_);" d="M128.1,20.2V4.1h11.9v3.2h-8.4v3.9h6.5
			v3.1h-6.5v5.9H128.1z"/>
		
			<linearGradient id="SVGID_00000125598779748414832960000013461664403960405927_" gradientUnits="userSpaceOnUse" x1="141.653" y1="11.85" x2="145.301" y2="11.85">
			<stop  offset="0" style="stop-color:#60CDD0"/>
			<stop  offset="1" style="stop-color:#19B9BE"/>
		</linearGradient>
		<path style="fill:url(#SVGID_00000125598779748414832960000013461664403960405927_);" d="M143.5,6.9c-0.5,0-0.9-0.2-1.3-0.5
			c-0.4-0.3-0.5-0.7-0.5-1.2s0.2-0.9,0.5-1.2c0.4-0.3,0.8-0.5,1.3-0.5c0.5,0,0.9,0.2,1.3,0.5c0.4,0.3,0.5,0.7,0.5,1.2
			s-0.2,0.9-0.5,1.2C144.4,6.8,144,6.9,143.5,6.9z M141.9,20.2V8.5h3.2v11.7H141.9z"/>
		
			<linearGradient id="SVGID_00000087377064656891553550000002800214167696667266_" gradientUnits="userSpaceOnUse" x1="72.2454" y1="33.6999" x2="85.0124" y2="33.6999">
			<stop  offset="0" style="stop-color:#60CDD0"/>
			<stop  offset="1" style="stop-color:#19B9BE"/>
		</linearGradient>
		<path style="fill:url(#SVGID_00000087377064656891553550000002800214167696667266_);" d="M78.6,39.8c-1.2,0-2.3-0.3-3.2-0.8
			c-1-0.5-1.7-1.3-2.3-2.2c-0.6-0.9-0.8-2-0.8-3.1c0-1.1,0.3-2.1,0.8-3.1c0.6-0.9,1.3-1.7,2.3-2.2c1-0.5,2-0.8,3.2-0.8
			c1.2,0,2.3,0.3,3.2,0.8c1,0.5,1.7,1.3,2.3,2.2c0.6,0.9,0.8,2,0.8,3.1c0,1.1-0.3,2.1-0.8,3.1c-0.6,0.9-1.3,1.7-2.3,2.2
			C81,39.5,79.8,39.8,78.6,39.8z M78.6,37.1c0.6,0,1.1-0.1,1.5-0.4c0.5-0.3,0.8-0.7,1.1-1.2c0.3-0.5,0.4-1.1,0.4-1.8
			c0-0.7-0.1-1.3-0.4-1.8c-0.3-0.5-0.6-0.9-1.1-1.2c-0.5-0.3-1-0.4-1.5-0.4c-0.6,0-1.1,0.1-1.5,0.4c-0.5,0.3-0.8,0.7-1.1,1.2
			c-0.3,0.5-0.4,1.1-0.4,1.8c0,0.7,0.1,1.3,0.4,1.8s0.6,0.9,1.1,1.2C77.5,37,78,37.1,78.6,37.1z"/>
		
			<linearGradient id="SVGID_00000131326678896357321620000014388958282148292795_" gradientUnits="userSpaceOnUse" x1="86.9373" y1="33.8499" x2="98.4884" y2="33.8499">
			<stop  offset="0" style="stop-color:#60CDD0"/>
			<stop  offset="1" style="stop-color:#19B9BE"/>
		</linearGradient>
		<path style="fill:url(#SVGID_00000131326678896357321620000014388958282148292795_);" d="M91.5,39.8c-1.4,0-2.5-0.4-3.3-1.3
			c-0.8-0.8-1.2-2-1.2-3.6v-7h3.2v6.6c0,0.8,0.2,1.5,0.6,1.9c0.4,0.4,1,0.7,1.7,0.7c0.5,0,0.9-0.1,1.3-0.4c0.4-0.3,0.7-0.6,1-1.1
			c0.2-0.5,0.4-1,0.4-1.6v-6.1h3.2v11.5h-3.2v-1.6h-0.1c-0.3,0.5-0.8,1-1.4,1.4C93.1,39.6,92.4,39.8,91.5,39.8z"/>
		
			<linearGradient id="SVGID_00000096025533729761490540000011952877171344660910_" gradientUnits="userSpaceOnUse" x1="101.123" y1="33.5499" x2="112.674" y2="33.5499">
			<stop  offset="0" style="stop-color:#60CDD0"/>
			<stop  offset="1" style="stop-color:#19B9BE"/>
		</linearGradient>
		<path style="fill:url(#SVGID_00000096025533729761490540000011952877171344660910_);" d="M101.1,39.5V28h3.2v1.6h0.1
			c0.3-0.5,0.8-1,1.4-1.4c0.6-0.4,1.4-0.6,2.2-0.6c1.4,0,2.5,0.4,3.3,1.3c0.8,0.8,1.2,2,1.2,3.6v7h-3.2v-6.6c0-0.8-0.2-1.5-0.6-1.9
			c-0.4-0.4-1-0.7-1.7-0.7c-0.5,0-0.9,0.1-1.3,0.4c-0.4,0.3-0.7,0.6-1,1.1c-0.2,0.5-0.4,1-0.4,1.6v6.1H101.1z"/>
		
			<linearGradient id="SVGID_00000007412119999258610300000004147972005370086299_" gradientUnits="userSpaceOnUse" x1="114.701" y1="31.65" x2="127.062" y2="31.65">
			<stop  offset="0" style="stop-color:#60CDD0"/>
			<stop  offset="1" style="stop-color:#19B9BE"/>
		</linearGradient>
		<path style="fill:url(#SVGID_00000007412119999258610300000004147972005370086299_);" d="M120.1,39.8c-1,0-1.9-0.3-2.7-0.8
			c-0.8-0.5-1.4-1.2-1.9-2.2c-0.5-0.9-0.7-2-0.7-3.2c0-1.2,0.2-2.3,0.7-3.2c0.5-0.9,1.1-1.6,1.9-2.2c0.8-0.6,1.7-0.8,2.7-0.8
			c0.6,0,1.1,0.1,1.5,0.3c0.5,0.2,0.9,0.4,1.2,0.7c0.3,0.3,0.6,0.6,0.9,0.9h0.1v-5.8h3.2v15.9h-3.2V38h-0.1
			c-0.2,0.3-0.5,0.6-0.9,0.9c-0.3,0.3-0.8,0.5-1.2,0.7C121.2,39.7,120.7,39.8,120.1,39.8z M120.9,37.1c0.6,0,1.1-0.1,1.5-0.4
			c0.4-0.3,0.8-0.7,1-1.2c0.2-0.5,0.4-1.1,0.4-1.8s-0.1-1.3-0.4-1.8c-0.2-0.5-0.6-0.9-1-1.2c-0.4-0.3-1-0.4-1.5-0.4
			c-0.5,0-1,0.1-1.4,0.4c-0.4,0.3-0.8,0.7-1,1.2c-0.2,0.5-0.4,1.1-0.4,1.8s0.1,1.3,0.4,1.8c0.2,0.5,0.6,0.9,1,1.2
			S120.4,37.1,120.9,37.1z"/>
		
			<linearGradient id="SVGID_00000170273839802153401090000010340442550625184665_" gradientUnits="userSpaceOnUse" x1="129.19" y1="33.5999" x2="141.552" y2="33.5999">
			<stop  offset="0" style="stop-color:#60CDD0"/>
			<stop  offset="1" style="stop-color:#19B9BE"/>
		</linearGradient>
		<path style="fill:url(#SVGID_00000170273839802153401090000010340442550625184665_);" d="M134.6,39.8c-1,0-1.9-0.3-2.7-0.8
			c-0.8-0.5-1.4-1.2-1.9-2.2c-0.5-0.9-0.7-2-0.7-3.2s0.2-2.3,0.7-3.2c0.5-0.9,1.1-1.6,1.9-2.2c0.8-0.5,1.7-0.8,2.7-0.8
			c0.6,0,1.1,0.1,1.5,0.3c0.5,0.2,0.9,0.4,1.2,0.7c0.3,0.3,0.6,0.6,0.9,0.9h0.1v-1.5h3.2v11.5h-3.2V38h-0.1
			c-0.2,0.3-0.5,0.6-0.9,0.9c-0.3,0.3-0.8,0.5-1.2,0.7C135.7,39.7,135.1,39.8,134.6,39.8z M135.4,37.1c0.6,0,1.1-0.1,1.5-0.4
			c0.4-0.3,0.8-0.7,1-1.2c0.2-0.5,0.4-1.1,0.4-1.8c0-0.7-0.1-1.3-0.4-1.8c-0.2-0.5-0.6-0.9-1-1.2c-0.4-0.3-1-0.4-1.5-0.4
			s-1,0.1-1.4,0.4c-0.4,0.3-0.8,0.7-1,1.2c-0.2,0.5-0.4,1.1-0.4,1.8c0,0.7,0.1,1.3,0.4,1.8c0.2,0.5,0.6,0.9,1,1.2
			C134.4,37,134.8,37.1,135.4,37.1z"/>
		
			<linearGradient id="SVGID_00000024717396386659541770000004219190413280801947_" gradientUnits="userSpaceOnUse" x1="143.275" y1="32.5" x2="151.482" y2="32.5">
			<stop  offset="0" style="stop-color:#60CDD0"/>
			<stop  offset="1" style="stop-color:#19B9BE"/>
		</linearGradient>
		<path style="fill:url(#SVGID_00000024717396386659541770000004219190413280801947_);" d="M144.7,39.5v-8.8h-1.4V28h1.5v-2.5h3.2
			V28h3.3v2.7H148v6.1h3.4v2.7H144.7z"/>
		
			<linearGradient id="SVGID_00000074414957883824362390000014043983051939620520_" gradientUnits="userSpaceOnUse" x1="152.9" y1="31.3001" x2="156.548" y2="31.3001">
			<stop  offset="0" style="stop-color:#60CDD0"/>
			<stop  offset="1" style="stop-color:#19B9BE"/>
		</linearGradient>
		<path style="fill:url(#SVGID_00000074414957883824362390000014043983051939620520_);" d="M154.7,26.5c-0.5,0-0.9-0.2-1.3-0.5
			c-0.4-0.3-0.5-0.7-0.5-1.2s0.2-0.8,0.5-1.2c0.4-0.3,0.8-0.5,1.3-0.5c0.5,0,0.9,0.2,1.3,0.5c0.4,0.3,0.5,0.7,0.5,1.2
			s-0.2,0.8-0.5,1.2C155.7,26.3,155.2,26.5,154.7,26.5z M153.2,39.5V28h3.2v11.5H153.2z"/>
		
			<linearGradient id="SVGID_00000057117917619012149660000009786037079682884780_" gradientUnits="userSpaceOnUse" x1="158.271" y1="33.6999" x2="171.038" y2="33.6999">
			<stop  offset="0" style="stop-color:#60CDD0"/>
			<stop  offset="1" style="stop-color:#19B9BE"/>
		</linearGradient>
		<path style="fill:url(#SVGID_00000057117917619012149660000009786037079682884780_);" d="M164.7,39.8c-1.2,0-2.3-0.3-3.2-0.8
			c-1-0.5-1.7-1.3-2.3-2.2c-0.6-0.9-0.8-2-0.8-3.1c0-1.1,0.3-2.1,0.8-3.1c0.6-0.9,1.3-1.7,2.3-2.2s2-0.8,3.2-0.8
			c1.2,0,2.3,0.3,3.2,0.8c1,0.5,1.7,1.3,2.3,2.2c0.6,0.9,0.8,2,0.8,3.1c0,1.1-0.3,2.1-0.8,3.1c-0.6,0.9-1.3,1.7-2.3,2.2
			C167,39.5,165.9,39.8,164.7,39.8z M164.7,37.1c0.6,0,1.1-0.1,1.5-0.4c0.5-0.3,0.8-0.7,1.1-1.2s0.4-1.1,0.4-1.8
			c0-0.7-0.1-1.3-0.4-1.8c-0.3-0.5-0.6-0.9-1.1-1.2c-0.5-0.3-1-0.4-1.5-0.4c-0.6,0-1.1,0.1-1.5,0.4c-0.5,0.3-0.8,0.7-1.1,1.2
			c-0.3,0.5-0.4,1.1-0.4,1.8c0,0.7,0.1,1.3,0.4,1.8s0.6,0.9,1.1,1.2C163.5,37,164.1,37.1,164.7,37.1z"/>
		
			<linearGradient id="SVGID_00000027573161029257555020000002726403089694474403_" gradientUnits="userSpaceOnUse" x1="173.064" y1="33.5499" x2="184.615" y2="33.5499">
			<stop  offset="0" style="stop-color:#60CDD0"/>
			<stop  offset="1" style="stop-color:#19B9BE"/>
		</linearGradient>
		<path style="fill:url(#SVGID_00000027573161029257555020000002726403089694474403_);" d="M173.1,39.5V28h3.2v1.6h0.1
			c0.3-0.5,0.8-1,1.4-1.4c0.6-0.4,1.4-0.6,2.2-0.6c1.4,0,2.5,0.4,3.3,1.3c0.8,0.8,1.2,2,1.2,3.6v7h-3.2v-6.6c0-0.8-0.2-1.5-0.6-1.9
			c-0.4-0.4-1-0.7-1.7-0.7c-0.5,0-0.9,0.1-1.3,0.4c-0.4,0.3-0.7,0.6-1,1.1c-0.2,0.5-0.4,1-0.4,1.6v6.1H173.1z"/>
		
			<linearGradient id="SVGID_00000000190422105512814230000008985823295399982748_" gradientUnits="userSpaceOnUse" x1="59.8833" y1="31.4499" x2="71.7384" y2="31.4499">
			<stop  offset="0" style="stop-color:#60CDD0"/>
			<stop  offset="1" style="stop-color:#19B9BE"/>
		</linearGradient>
		<path style="fill:url(#SVGID_00000000190422105512814230000008985823295399982748_);" d="M59.9,39.5V23.4h11.9v3.2h-8.4v3.9h6.5
			v3.1h-6.5v5.9H59.9z"/>
	</g>
</g>
</svg>
