<?xml version="1.0" encoding="utf-8"?>
<!-- Generator: Adobe Illustrator 28.3.0, SVG Export Plug-In . SVG Version: 6.00 Build 0)  -->
<svg version="1.1" id="katman_1" xmlns="http://www.w3.org/2000/svg" xmlns:xlink="http://www.w3.org/1999/xlink" x="0px" y="0px"
	 viewBox="0 0 163 48" style="enable-background:new 0 0 163 48;" xml:space="preserve">
<style type="text/css">
	.st0{fill:#0CC2FF;stroke:#0CC2FF;stroke-width:0.225;}
	.st1{fill:#0CC2FF;stroke:#0CC2FF;}
	.st2{fill:#0CC2FF;}
	.st3{fill-rule:evenodd;clip-rule:evenodd;fill:#0CC2FF;}
</style>
<path class="st0" d="M46.4,10.7L46.4,10.7L46.4,10.7l-8-4.7l-0.1,0l-0.1,0l-6.6,3.7V5.3V5.2l-0.1,0l-7.9-4.6l-0.1,0l-0.1,0l-7.9,4.6
	l-0.1,0v0.1v4.6L8.9,6L8.9,6L8.8,6l-7.9,4.6l-0.1,0v0.1v9.2V20l0.1,0l6.5,3.8l-6.5,3.8l-0.1,0v0.1v9.1v0.1l0.1,0l7.9,4.7l0.1,0
	l0.1,0l6.6-3.8v4.6v0.1l0.1,0l8,4.5l0.1,0l0.1,0l8-4.5l0.1,0l0-0.1l0-4.6l6.6,3.8l0.1,0l0.1,0l8-4.7l0.1,0v-0.1v-9.1v-0.1l-0.1,0
	l-6.5-3.8l6.5-3.8l0.1,0v-0.1V10.7z M30.9,18.7l-3.2-1.9l3.9-2.3l0.1,0v-0.1v-3l6.6-3.8l5.9,3.4L30.9,18.7z M22.9,10.3v6.8l-0.6-0.4
	l0,0L21,16l0,0l-4-2.3V6.9L22.9,10.3z M24.4,10.3l5.9-3.4v6.8l-5.3,3l0,0l-0.6,0.3V10.3z M15.6,14.5L15.6,14.5L15.6,14.5l3.9,2.3
	l-3.3,1.9L3.1,11.1l5.8-3.4l6.7,3.8V14.5z M23.6,19.1L23.6,19.1l0.1,0l2.6-1.5l3.2,1.9l-5.9,3.3l-5.9-3.3l3.2-1.9L23.6,19.1z
	 M23.6,9l-5.8-3.4l5.8-3.4l5.8,3.4L23.6,9z M2.4,19.1v-6.7l12.4,7.2l-5.8,3.4L2.4,19.1z M8.2,32.7v6.7L2.4,36v-6.7L8.2,32.7z
	 M3.1,28l13.2-7.6l5.9,3.3L8.9,31.4L3.1,28z M17,36.9l5.9-3.4v11.3L17,41.5V36.9z M22.8,25v6.9L9.6,39.4v-6.7L22.8,25z M30.2,41.5
	l-5.9,3.3V33.5l5.9,3.4L30.2,41.5z M37.5,32.7v6.8l-13.2-7.6V25L37.5,32.7z M44.9,29.3V36L39,39.4v-6.7L44.9,29.3z M30.9,20.4
	L44.2,28l-5.9,3.4L25,23.7L30.9,20.4z M44.9,19.1l-6.6,3.8l-5.9-3.4l12.5-7.2V19.1z"/>
<path class="st1" d="M67.3,6.9l1.8,1.8v3.1h-2.2V9.6l-0.5-0.5h-6.1l-0.5,0.5v9.2l0.5,0.5h6.1l0.5-0.5v-2.2h2.2v3.1l-1.8,1.8h-7.9
	l-1.8-1.8v-11l1.8-1.8H67.3z"/>
<path class="st1" d="M82.8,6.9l1.8,1.8v6.1l-1.8,1.8h-3.1l4.9,4.9h-3.1l-4.9-4.9h-1.4v4.9H73V6.9H82.8z M82.4,13.9V9.6l-0.5-0.5
	h-6.7v5.4h6.7L82.4,13.9z"/>
<path class="st1" d="M98.3,6.9l1.8,1.8v11l-1.8,1.8h-7.9l-1.8-1.8v-11l1.8-1.8H98.3z M97.9,18.8V9.6l-0.5-0.5h-6.1l-0.5,0.5v9.2
	l0.5,0.5h6.1L97.9,18.8z"/>
<path class="st1" d="M113.8,6.9l1.8,1.8v2.4h-2.2V9.6l-0.5-0.5h-6.1l-0.5,0.5v2.6l0.5,0.5h7l1.8,1.8v5.1l-1.8,1.8h-7.9l-1.8-1.8
	v-2.4h2.2v1.5l0.5,0.5h6.1l0.5-0.5v-3.3l-0.5-0.5h-7l-1.8-1.8V8.7l1.8-1.8H113.8z"/>
<path class="st1" d="M129.4,6.9l1.8,1.8v2.4H129V9.6l-0.5-0.5h-6.1l-0.5,0.5v2.6l0.5,0.5h7l1.8,1.8v5.1l-1.8,1.8h-7.9l-1.8-1.8v-2.4
	h2.2v1.5l0.5,0.5h6.1l0.5-0.5v-3.3l-0.5-0.5h-7l-1.8-1.8V8.7l1.8-1.8H129.4z"/>
<path class="st1" d="M137.9,9.1l-0.5,0.5v3h7v2.2h-7v6.7h-2.2V8.7l1.8-1.8h9.8v2.2H137.9z"/>
<path class="st1" d="M157.5,9.1v10.2h4.7v2.2h-11.6v-2.2h4.7V9.1h-4.7V6.9h11.6v2.2H157.5z"/>
<path class="st2" d="M67.5,25.7l1.8,1.8v12.8h-2.2v-4.3H60v4.3h-2.2V27.6l1.8-1.8H67.5z M60,33.9h7.2v-5.4l-0.5-0.5h-6.1L60,28.5
	V33.9z"/>
<path class="st2" d="M83,25.7l1.8,1.8v6.1L83,35.5h-7.6v4.9h-2.2V27.6l1.8-1.8H83z M82.7,32.8v-4.3l-0.5-0.5H76l-0.5,0.5v4.8h6.7
	L82.7,32.8z"/>
<path class="st2" d="M98.6,25.7l1.8,1.8v6.1l-1.8,1.8H91v4.9h-2.2V27.6l1.8-1.8H98.6z M98.2,32.8v-4.3l-0.5-0.5h-6.1L91,28.5v4.8
	h6.7L98.2,32.8z"/>
<path class="st3" d="M59.5,25.5h8.1l2,2v13.2h-2.7v-4.3h-6.7v4.3h-2.7V27.5L59.5,25.5z M59.7,26L58,27.7v12.5h1.7v-4.3h7.7v4.3h1.7
	V27.7L67.4,26H59.7z M75,25.5h8.1l2,2v6.3l-2,2h-7.4v4.9H73V27.5L75,25.5z M75.2,26l-1.7,1.7v12.5h1.7v-4.9h7.7l1.7-1.7v-5.9
	L82.9,26H75.2z M90.5,25.5h8.1l2,2v6.3l-2,2h-7.4v4.9h-2.7V27.5L90.5,25.5z M90.7,26l-1.7,1.7v12.5h1.7v-4.9h7.7l1.7-1.7v-5.9
	L98.5,26H90.7z M60.4,27.7h6.3l0.7,0.7v5.8h-7.7v-5.8L60.4,27.7z M60.6,28.2l-0.4,0.4v5.1h6.7v-5.1l-0.4-0.4H60.6z M75.9,27.7h6.3
	l0.7,0.7v4.5l-0.7,0.7h-7v-5.2L75.9,27.7z M76.1,28.2l-0.4,0.4V33H82l0.4-0.4v-4.1L82,28.2H76.1z M91.4,27.7h6.3l0.7,0.7v4.5
	l-0.7,0.7h-7v-5.2L91.4,27.7z M91.6,28.2l-0.4,0.4V33h6.3l0.4-0.4v-4.1l-0.4-0.4H91.6z"/>
</svg>
