<?xml version="1.0" encoding="utf-8"?>
<!-- Generator: Adobe Illustrator 28.3.0, SVG Export Plug-In . SVG Version: 6.00 Build 0)  -->
<svg version="1.1" id="katman_1" xmlns="http://www.w3.org/2000/svg" xmlns:xlink="http://www.w3.org/1999/xlink" x="0px" y="0px"
	 viewBox="0 0 161 42" style="enable-background:new 0 0 161 42;" xml:space="preserve">
<style type="text/css">
	.st0{fill-rule:evenodd;clip-rule:evenodd;fill:#0CC2FF;}
	.st1{fill:#0CC2FF;stroke:#0CC2FF;}
	.st2{fill:#0CC2FF;}
</style>
<path class="st0" d="M9.1,0l0.3,0l10.7,0l0.3,0l0.3,0.2L23,2l2.3-1.8L25.6,0l0.3,0l10.7,0l0.3,0l0.3,0.2l8.5,6.6L46,7.1v0.5v11.7
	v0.3l-0.2,0.3l-2.5,3.3l2.5,3.3l0.2,0.3v0.3v6.8v0.5l-0.4,0.3L37.2,41l-0.3,0.2h-0.3l-10.7,0h-0.3L25.3,41L23,39.2L20.7,41l-0.3,0.2
	h-0.3l-10.7,0H9.1L8.9,41l-8.5-6.6L0,34.2v-0.5v-6.8v-0.3l0.2-0.3l2.5-3.3l-2.5-3.3L0,19.5v-0.3V7.5V7l0.4-0.3l8.5-6.6L9.1,0z
	 M21.5,3.2l-1.7-1.3l-10,0L2.5,7.5l7.3,5.6l10,0l1.7-1.3l0,0l1.5-1.2l0,0l0.5-0.4L24,9.9l0,0l3.1-2.4l-2.2-1.7l1.5-1.2l2.8,2.1
	l1,0.7l-1,0.7l-4.7,3.6l1.7,1.3l10,0l7.3-5.6l-7.3-5.6l-10,0l-1.7,1.3l0,0l-2.5,1.9l0,0l-3.2,2.4l2.2,1.7l-1.5,1.2l-2.8-2.1l-1-0.7
	l1-0.7L21.5,3.2z M23,13L21,14.5v23.9l1.4-1.1l0.6-0.4l0.6,0.4l1.4,1.1V14.5L23,13z M26.8,15v24.4l8.8,0V27.7V15L26.8,15z
	 M37.5,14.5v13.1v10.7l6.6-5.1v-6l-2.8-3.6L41,23.1l0.4-0.6l2.8-3.6V9.4L37.5,14.5z M19.2,39.3V15l-8.8,0v12.7v11.7L19.2,39.3z
	 M8.5,38.4V27.7V14.5L1.9,9.4v9.5l2.8,3.6l0.4,0.6l-0.4,0.6l-2.8,3.6v6L8.5,38.4z"/>
<path class="st1" d="M65.9,3.7l1.8,1.8v3.1h-2.2V6.5L65,5.9h-6.1l-0.5,0.5v9.2l0.5,0.5H65l0.5-0.5v-2.2h2.2v3.1l-1.8,1.8H58
	l-1.8-1.8v-11L58,3.7H65.9z"/>
<path class="st1" d="M81.4,3.7l1.8,1.8v6.1l-1.8,1.8h-3.1l4.9,4.9h-3.1l-4.9-4.9h-1.4v4.9h-2.2V3.7H81.4z M81.1,10.8V6.5l-0.5-0.5
	h-6.7v5.4h6.7L81.1,10.8z"/>
<path class="st1" d="M97,3.7l1.8,1.8v11L97,18.4H89l-1.8-1.8v-11L89,3.7H97z M96.6,15.7V6.5l-0.5-0.5h-6.1l-0.5,0.5v9.2l0.5,0.5h6.1
	L96.6,15.7z"/>
<path class="st1" d="M112.5,3.7l1.8,1.8V8h-2.2V6.5l-0.5-0.5h-6.1l-0.5,0.5v2.6l0.5,0.5h7l1.8,1.8v5.1l-1.8,1.8h-7.9l-1.8-1.8v-2.4
	h2.2v1.5l0.5,0.5h6.1l0.5-0.5v-3.3l-0.5-0.5h-7l-1.8-1.8V5.6l1.8-1.8H112.5z"/>
<path class="st1" d="M128,3.7l1.8,1.8V8h-2.2V6.5l-0.5-0.5H121l-0.5,0.5v2.6l0.5,0.5h7l1.8,1.8v5.1l-1.8,1.8h-7.9l-1.8-1.8v-2.4h2.2
	v1.5l0.5,0.5h6.1l0.5-0.5v-3.3l-0.5-0.5h-7l-1.8-1.8V5.6l1.8-1.8H128z"/>
<path class="st1" d="M136.5,5.9L136,6.5v3h7v2.2h-7v6.7h-2.2V5.6l1.8-1.8h9.8v2.2H136.5z"/>
<path class="st1" d="M156.2,5.9v10.2h4.7v2.2h-11.6v-2.2h4.7V5.9h-4.7V3.7h11.6v2.2H156.2z"/>
<path class="st2" d="M65.9,22.6l1.8,1.8v3.1h-2.2v-2.2L65,24.8h-6.1l-0.5,0.5v9.2l0.5,0.5H65l0.5-0.5v-2.2h2.2v3.1l-1.8,1.8H58
	l-1.8-1.8v-11l1.8-1.8H65.9z"/>
<path class="st2" d="M81.1,22.6h2.2v14.7h-2.2v-5.9h-7.2v5.9h-2.2V22.6h2.2v6.5h7.2V22.6z"/>
<path class="st2" d="M97,22.6l1.8,1.8v12.8h-2.2V33h-7.2v4.3h-2.2V24.4l1.8-1.8H97z M89.4,30.8h7.2v-5.4l-0.5-0.5h-6.1l-0.5,0.5
	V30.8z"/>
<path class="st2" d="M109.6,24.8V35h4.7v2.2h-11.6V35h4.7V24.8h-4.7v-2.2h11.6v2.2H109.6z"/>
<path class="st2" d="M127.6,22.6h2.2v14.7h-2.2l-7.2-10.7v10.7h-2.2V22.6h2.2l7.2,10.7V22.6z"/>
<path class="st0" d="M58.1,22.3h8.1l2,2v3.4h-2.7v-2.3l-0.4-0.4h-5.9l-0.4,0.4v9l0.4,0.4h5.9l0.4-0.4v-2.3h2.7v3.4l-2,2h-8.1l-2-2
	V24.3L58.1,22.3z M58.3,22.8l-1.7,1.7v10.8l1.7,1.7h7.7l1.7-1.7v-2.7h-1.7v2l-0.7,0.7H59l-0.7-0.7v-9.4l0.7-0.7h6.3l0.7,0.7v2h1.7
	v-2.7l-1.7-1.7H58.3z M71.7,22.3h2.7v6.5h6.7v-6.5h2.7v15.2h-2.7v-5.9h-6.7v5.9h-2.7V22.3z M72.2,22.8V37h1.6v-5.9h7.8V37h1.7V22.8
	h-1.7v6.5h-7.8v-6.5H72.2z M89.2,22.3h8.1l2,2v13.2h-2.7v-4.3h-6.7v4.3h-2.7V24.3L89.2,22.3z M89.4,22.8l-1.7,1.7V37h1.7v-4.3h7.7
	V37h1.7V24.5l-1.7-1.7H89.4z M102.7,22.3h12.1v2.7h-4.7v9.7h4.7v2.7h-12.1v-2.7h4.7v-9.7h-4.7V22.3z M103.2,22.8v1.7h4.7v10.8h-4.7
	V37h11.1v-1.7h-4.7V24.5h4.7v-1.7H103.2z M118.2,22.3h2.6l6.8,10.1V22.3h2.7v15.2h-2.6L121,27.4v10.1h-2.7V22.3z M118.8,22.8V37h1.7
	V25.7L128,37h1.8V22.8h-1.7v11.3l-7.6-11.3H118.8z M90.1,24.5h6.3l0.7,0.7V31h-7.7v-5.8L90.1,24.5z M90.3,25.1l-0.4,0.4v5.1h6.7
	v-5.1l-0.4-0.4H90.3z"/>
</svg>
