<?xml version="1.0" encoding="utf-8"?>
<!-- Generator: Adobe Illustrator 28.3.0, SVG Export Plug-In . SVG Version: 6.00 Build 0)  -->
<svg version="1.1" id="katman_1" xmlns="http://www.w3.org/2000/svg" xmlns:xlink="http://www.w3.org/1999/xlink" x="0px" y="0px"
	 viewBox="0 0 167 40" style="enable-background:new 0 0 167 40;" xml:space="preserve">
<style type="text/css">
	.st0{fill:#0CC2FF;stroke:#0CC2FF;stroke-width:0.1934;}
	.st1{fill:#0CC2FF;stroke:#0CC2FF;}
	.st2{fill:#0CC2FF;stroke:#0CC2FF;stroke-width:0.3081;}
	.st3{fill:#0CC2FF;stroke:#0CC2FF;stroke-width:0.1551;}
</style>
<path class="st0" d="M9.7,0.4L9.7,0.4L9.7,0.4L1,5.4l0,0v0.1v10v0.1l0,0l7.2,4.2L1,23.9l0,0V24v9.9V34l0,0l8.6,5.1l0,0l0,0l7.4-4.2
	l0,0l8.7-4.9l8.7,4.9l0,0l7.4,4.2l0,0l0,0l8.7-5.1l0,0v-0.1V24v-0.1l0,0l-7.2-4.2l7.2-4.2l0,0v-0.1v-10V5.4l0,0l-8.7-5l0,0l0,0
	L25.7,9.5L9.7,0.4z M2.5,7.2l13.7,7.9l-6.4,3.7l-7.2-4.2V7.2z M17.7,14.2L3.2,5.9l6.4-3.7l14.5,8.3L17.7,14.2z M32.2,15.1l-6.5,3.7
	l-6.5-3.7l6.5-3.8L32.2,15.1z M49,14.6l-7.3,4.2l-6.5-3.7L49,7.2V14.6z M48.3,5.9l-14.5,8.3l-6.5-3.8l14.5-8.3L48.3,5.9z M48.3,24.4
	l-6.5,3.7l-14.5-8.4l6.5-3.7L48.3,24.4z M42.6,36.9v-7.4l6.5-3.7v7.4L42.6,36.9z M26.5,21L41,29.5v7.4l-14.5-8.3V21z M24.9,21v7.6
	l-14.5,8.3v-7.4L24.9,21z M9.6,28.1l-6.4-3.7L17.7,16l6.5,3.7L9.6,28.1z M2.5,33.1v-7.4l6.4,3.7v7.4L2.5,33.1z"/>
<path class="st1" d="M71.5,2.9l1.8,1.8v3.1h-2.2V5.6l-0.5-0.5h-6.1L64,5.6v9.2l0.5,0.5h6.1l0.5-0.5v-2.2h2.2v3.1l-1.8,1.8h-7.9
	l-1.8-1.8v-11l1.8-1.8H71.5z"/>
<path class="st1" d="M87,2.9l1.8,1.8v6.1L87,12.7H84l4.9,4.9h-3.1l-4.9-4.9h-1.4v4.9h-2.2V2.9H87z M86.7,9.9V5.6l-0.5-0.5h-6.7v5.4
	h6.7L86.7,9.9z"/>
<path class="st1" d="M102.6,2.9l1.8,1.8v11l-1.8,1.8h-7.9l-1.8-1.8v-11l1.8-1.8H102.6z M102.2,14.8V5.6l-0.5-0.5h-6.1L95,5.6v9.2
	l0.5,0.5h6.1L102.2,14.8z"/>
<path class="st1" d="M118.1,2.9l1.8,1.8v2.4h-2.2V5.6l-0.5-0.5h-6.1l-0.5,0.5v2.6l0.5,0.5h7l1.8,1.8v5.1l-1.8,1.8h-7.9l-1.8-1.8
	v-2.4h2.2v1.5l0.5,0.5h6.1l0.5-0.5v-3.3l-0.5-0.5h-7l-1.8-1.8V4.7l1.8-1.8H118.1z"/>
<path class="st1" d="M133.6,2.9l1.8,1.8v2.4h-2.2V5.6l-0.5-0.5h-6.1L126,5.6v2.6l0.5,0.5h7l1.8,1.8v5.1l-1.8,1.8h-7.9l-1.8-1.8v-2.4
	h2.2v1.5l0.5,0.5h6.1l0.5-0.5v-3.3l-0.5-0.5h-7l-1.8-1.8V4.7l1.8-1.8H133.6z"/>
<path class="st1" d="M142.1,5.1l-0.5,0.5v3h7v2.2h-7v6.7h-2.2V4.7l1.8-1.8h9.8v2.2H142.1z"/>
<path class="st1" d="M161.8,5.1v10.2h4.7v2.2h-11.6v-2.2h4.7V5.1h-4.7V2.9h11.6v2.2H161.8z"/>
<path class="st2" d="M112.4,22L112.4,22l-0.1,0h-7.8h-0.1l0,0l-1.8,1.8l0,0v0.1v12.7v0.2h0.2h2.2h0.2v-0.2v-4.7h7.3h0.1l0,0l1.8-1.8
	l0,0v-0.1v-6v-0.1l0,0L112.4,22z M111.3,24.4l0.4,0.4v4.1l-0.4,0.4H105v-4.6l0.4-0.4H111.3z"/>
<path class="st2" d="M98.7,22L98.7,22l-0.1,0h-7.8h-0.1l0,0l-1.8,1.8l0,0v0.1v12.7v0.2h0.2h2.2h0.2v-0.2v-4.7h7.3h0.1l0,0l1.8-1.8
	l0,0v-0.1v-6v-0.1l0,0L98.7,22z M97.6,24.4l0.4,0.4v4.1l-0.4,0.4h-6.4v-4.6l0.4-0.4H97.6z"/>
<path class="st2" d="M84.9,22L84.9,22l-0.1,0h-7.8h-0.1l0,0L75,23.8l0,0v0.1v12.7v0.2h0.2h2.2h0.2v-0.2v-4.1h6.8v4.1v0.2h0.2h2.2
	h0.2v-0.2V23.9v-0.1l0,0L84.9,22z M84.3,24.8V30h-6.8v-5.2l0.4-0.4h5.9L84.3,24.8z"/>
<path class="st3" d="M61.9,36.5l-0.1,0.1h0.2h2.2h0l0,0l2.6-2.6l2.6,2.6l0,0h0h2.2H72l-0.1-0.1l-3.8-3.6l3.8-3.6l0.1-0.1h-0.2h-2.2
	h0l0,0l-2.6,2.6l-2.6-2.6l0,0h0h-2.2h-0.2l0.1,0.1l3.7,3.6L61.9,36.5z"/>
</svg>
